<?xml version="1.0" standalone="no"?>
<!DOCTYPE svg PUBLIC "-//W3C//DTD SVG 20010904//EN"
 "http://www.w3.org/TR/2001/REC-SVG-20010904/DTD/svg10.dtd">
<svg version="1.0" xmlns="http://www.w3.org/2000/svg"
 width="495.000000pt" height="500.000000pt" viewBox="0 0 495.000000 500.000000"
 preserveAspectRatio="xMidYMid meet">

<g transform="translate(0.000000,500.000000) scale(0.100000,-0.100000)"
fill="#000000" stroke="none">
<path d="M2230 4983 c-576 -59 -1083 -302 -1495 -717 -219 -220 -346 -398
-475 -661 -163 -334 -243 -659 -256 -1035 -24 -670 241 -1346 718 -1831 821
-836 2107 -974 3075 -329 289 192 527 432 715 720 82 124 202 365 254 505 199
545 200 1175 2 1720 -319 878 -1103 1507 -2018 1620 -112 14 -419 19 -520 8z
m575 -87 c525 -83 1005 -334 1368 -716 904 -951 897 -2444 -17 -3379 -191
-195 -397 -349 -621 -463 -347 -177 -684 -258 -1075 -258 -382 0 -694 72
-1035 240 -388 190 -706 470 -950 835 -84 125 -223 407 -269 545 -212 632
-171 1286 119 1875 360 734 1050 1227 1858 1330 142 18 481 13 622 -9z"/>
<path d="M2304 4789 c-903 -56 -1702 -680 -1994 -1557 -182 -545 -159 -1113
66 -1650 281 -671 905 -1188 1614 -1337 205 -44 524 -59 720 -35 773 95 1434
570 1776 1275 151 311 219 591 231 945 18 560 -175 1119 -535 1550 -466 557
-1155 854 -1878 809z m166 -239 c0 -25 -4 -30 -24 -30 -54 0 -56 -4 -49 -106
l6 -94 -41 0 c-41 0 -42 1 -42 34 0 18 -3 61 -6 94 l-7 62 -38 -6 -39 -7 0 36
0 36 63 4 c34 2 88 4 120 5 l57 2 0 -30z m149 14 c2 -2 0 -56 -5 -121 l-9
-118 -37 0 c-21 0 -39 5 -39 10 -2 20 13 230 17 237 4 7 63 0 73 -8z m258 -30
c54 -34 72 -119 38 -184 -39 -76 -165 -79 -223 -5 -46 59 -18 170 51 200 36
17 99 11 134 -11z m-683 -95 c36 -61 66 -114 66 -119 0 -4 -17 -10 -37 -12
-35 -4 -47 1 -56 25 -1 4 -21 5 -45 1 -33 -5 -44 -12 -48 -29 -4 -17 -16 -25
-41 -30 -19 -3 -36 -5 -38 -3 -2 2 5 46 15 98 9 52 20 112 24 132 7 37 12 40
77 47 11 0 39 -37 83 -110z m932 -35 c22 -84 23 -85 48 -6 10 28 19 52 20 52
14 0 66 -24 66 -30 0 -15 -72 -215 -81 -224 -5 -6 -22 -4 -42 6 -29 14 -35 23
-46 74 -20 89 -25 93 -47 32 -18 -48 -22 -53 -48 -51 -16 1 -33 6 -37 10 -7 7
58 204 76 234 3 4 20 2 38 -6 29 -12 34 -21 53 -91z m-1196 -28 l39 -117 -25
-9 c-41 -16 -53 -12 -115 36 -32 25 -59 43 -59 41 0 -2 9 -30 20 -61 l19 -57
-32 -14 c-18 -7 -35 -11 -38 -7 -11 12 -81 233 -76 238 2 3 20 7 38 10 29 5
42 -1 93 -40 32 -25 60 -46 62 -46 1 0 -6 25 -17 57 -10 31 -19 59 -19 63 0 7
62 29 68 25 1 -1 20 -55 42 -119z m-330 -36 c22 -22 27 -69 8 -88 -9 -9 -7
-13 8 -18 27 -11 94 -55 94 -63 0 -4 -16 -15 -36 -24 -36 -18 -36 -18 -83 13
-45 28 -71 37 -71 25 0 -3 9 -23 20 -45 11 -22 20 -42 20 -44 0 -6 -55 -36
-64 -36 -6 0 -116 204 -116 216 0 15 141 83 173 83 15 1 36 -8 47 -19z m1848
3 c15 -9 28 -18 30 -19 4 -2 -27 -256 -32 -261 -2 -3 -18 3 -35 12 -22 11 -31
23 -31 40 0 35 -61 66 -92 46 -16 -10 -26 -10 -49 -1 -16 7 -29 18 -28 24 1
15 181 176 197 176 7 0 25 -8 40 -17z m210 -123 l24 -20 -56 -76 -55 -77 49
-35 c48 -34 49 -35 33 -59 -9 -14 -22 -22 -30 -19 -18 7 -141 95 -148 105 -6
11 134 201 148 201 7 -1 22 -9 35 -20z m-2330 -10 c11 -18 7 -23 -38 -56 -27
-20 -50 -40 -50 -44 0 -23 26 -19 66 10 36 26 48 30 59 20 23 -19 18 -37 -17
-59 -64 -40 -61 -36 -47 -59 12 -20 14 -19 70 19 l57 38 16 -24 c16 -24 15
-24 -69 -85 -47 -33 -87 -60 -90 -60 -12 0 -146 203 -139 210 20 20 150 109
159 109 6 1 16 -8 23 -19z m-228 -215 l-30 -31 65 -64 c36 -35 65 -67 65 -70
0 -4 -14 -16 -30 -29 l-31 -22 -63 68 -64 68 -29 -28 -29 -27 -23 24 -22 23
88 81 88 81 22 -21 23 -22 -30 -31z m1255 -116 c17 -10 41 -37 54 -59 19 -35
23 -52 19 -106 -4 -71 -23 -104 -79 -142 -28 -19 -44 -23 -85 -20 -58 5 -94
28 -122 78 -29 51 -35 91 -22 143 29 114 140 164 235 106z m1665 6 c27 -29 25
-34 -56 -95 -55 -43 -68 -72 -42 -98 20 -20 38 -14 104 38 35 28 66 50 70 50
9 0 43 -44 43 -55 0 -12 -120 -106 -151 -118 -35 -13 -75 2 -108 40 -71 81
-65 122 33 203 40 33 75 60 78 60 3 0 16 -11 29 -25z m-1001 -168 c78 -88 141
-163 139 -167 -2 -5 -178 -180 -393 -389 l-389 -380 -341 -3 c-187 -2 -343 -1
-347 2 -8 6 1171 1102 1182 1098 4 -2 72 -74 149 -161z m-2058 57 c82 -63 97
-79 89 -93 -19 -37 -38 -43 -115 -39 -41 2 -75 1 -75 -2 1 -3 21 -20 45 -38
25 -18 45 -36 45 -41 0 -5 -9 -19 -19 -32 l-19 -24 -34 24 c-18 14 -63 49
-100 78 l-68 54 22 30 22 30 81 -6 80 -7 -40 36 c-22 19 -43 35 -47 36 -13 0
-9 20 10 45 9 14 18 25 20 25 2 0 48 -34 103 -76z m3265 -180 c3 -13 -7 -46
-25 -82 -17 -34 -31 -64 -31 -68 0 -3 25 8 56 26 31 17 57 30 59 28 1 -2 9
-17 18 -33 l15 -31 -109 -62 -110 -61 -18 30 c-21 34 -18 47 31 143 l20 39
-56 -31 c-31 -18 -58 -32 -61 -32 -6 0 -38 61 -33 65 2 1 50 30 108 63 94 53
106 58 118 43 7 -9 15 -26 18 -37z m-2127 -127 c50 -79 91 -148 91 -154 0 -5
-131 -129 -290 -276 l-291 -267 -235 0 c-130 0 -234 4 -232 8 6 16 847 832
857 832 5 0 50 -65 100 -143z m-1325 52 c55 -34 102 -62 104 -64 6 -6 -28 -65
-38 -65 -11 0 -210 119 -210 126 0 10 31 64 36 64 4 0 52 -27 108 -61z m2531
-122 c58 -65 105 -122 105 -126 0 -5 -111 -118 -247 -250 l-248 -241 -235 0
-235 0 370 370 c203 204 373 369 377 368 4 -2 55 -56 113 -121z m1064 -69 c6
-17 8 -35 4 -39 -17 -17 -217 -99 -223 -92 -3 5 -12 21 -18 36 l-12 28 77 35
c43 19 92 41 108 48 44 21 52 19 64 -16z m-3704 -67 c60 -27 80 -55 80 -110
-1 -92 -54 -154 -131 -154 -127 0 -191 120 -120 225 40 59 98 73 171 39z
m2981 -246 l196 -220 -313 -7 c-173 -5 -364 -7 -425 -5 l-112 2 220 228 c122
125 225 226 229 225 5 -2 97 -102 205 -223z m784 158 c0 -6 -31 -34 -70 -63
-38 -29 -70 -54 -70 -57 0 -3 40 -2 89 1 l89 7 11 -32 c6 -18 11 -36 11 -40 0
-11 -87 -12 -193 -3 -76 7 -76 7 -88 41 -6 18 -9 37 -7 42 2 5 48 46 103 91
l100 82 12 -29 c7 -15 12 -33 13 -40z m-3836 -238 c61 -29 84 -113 52 -190
-51 -121 -266 -81 -266 50 0 96 50 155 132 155 27 0 64 -7 82 -15z m3926 -125
c8 -55 11 -102 9 -104 -2 -2 -14 -7 -26 -10 -20 -6 -22 -2 -28 41 -10 70 -15
83 -32 83 -12 0 -14 -12 -11 -62 3 -59 1 -63 -19 -66 -23 -3 -25 0 -38 81 -6
37 -11 42 -37 32 -12 -5 -13 -17 -5 -66 11 -64 2 -83 -33 -76 -14 2 -32 79
-42 178 l-3 34 110 16 c61 9 117 17 126 18 14 1 19 -17 29 -99z m-4094 -205
l0 -40 100 -5 c107 -5 100 0 96 -67 l-2 -26 -99 6 -100 6 -3 -42 c-3 -39 -5
-42 -33 -42 -37 0 -40 12 -30 153 l7 103 32 -3 c29 -3 31 -6 32 -43z m4116
-47 c1 -35 1 -79 -1 -98 -4 -65 -70 -92 -114 -47 l-23 22 -49 -32 c-27 -18
-53 -33 -57 -33 -5 0 -8 20 -8 45 0 40 3 46 33 61 37 19 67 44 67 56 0 4 -22
8 -50 8 l-50 0 0 40 0 40 125 0 125 0 2 -62z m-1292 1 c109 -23 168 -131 142
-255 -22 -106 -83 -154 -196 -154 -100 0 -148 26 -187 102 -23 45 -26 152 -5
201 15 38 76 95 109 101 83 18 77 18 137 5z m525 -23 c59 -32 87 -88 87 -177
0 -139 -67 -209 -202 -209 -134 0 -205 73 -204 210 1 109 52 177 147 201 47
11 127 0 172 -25z m-2416 -3 c38 -98 131 -358 131 -370 0 -11 -14 -13 -62 -11
-60 3 -62 4 -70 36 l-9 32 -69 0 -69 0 -9 -32 c-8 -32 -10 -33 -70 -36 -34 -2
-62 1 -62 5 0 4 32 97 72 206 l71 197 68 0 c63 0 67 -1 78 -27z m311 -123 l0
-149 93 -3 92 -3 0 -50 0 -50 -155 0 -155 0 -3 203 -2 202 65 0 65 0 0 -150z
m566 -50 c39 -107 68 -199 64 -203 -4 -5 -31 -7 -60 -5 -52 3 -61 9 -74 51 -4
14 -17 17 -74 17 l-69 0 -9 -32 c-9 -31 -12 -33 -63 -36 -30 -2 -57 0 -62 5
-4 4 21 87 57 183 90 247 72 221 151 218 l67 -3 72 -195z m724 150 l0 -50 -60
0 -59 0 -3 -152 -3 -153 -62 -3 -63 -3 0 156 0 155 -60 0 -60 0 0 50 0 50 185
0 185 0 0 -50z m-2420 -167 c0 -21 3 -62 6 -90 l7 -53 -32 0 c-29 0 -31 2 -31
38 0 20 -3 61 -6 90 l-7 52 32 0 c29 0 31 -2 31 -37z m3830 -31 c0 -32 -5 -41
-25 -50 -28 -13 -35 -56 -10 -66 15 -5 45 28 45 50 0 7 12 26 26 43 31 37 74
41 105 10 18 -18 21 -30 17 -80 -5 -63 -34 -109 -70 -109 -27 0 -25 65 2 80
21 11 27 44 10 55 -5 3 -20 -18 -33 -47 -28 -64 -48 -81 -89 -81 -22 0 -39 8
-56 28 -21 25 -24 36 -20 87 5 62 31 103 72 111 11 2 22 5 24 6 1 0 2 -16 2
-37z m-1800 -7 l0 -35 -115 0 -115 0 0 35 0 35 115 0 115 0 0 -35z m-1915
-152 c5 -31 3 -39 -15 -53 -11 -9 -19 -22 -16 -30 2 -8 7 -27 10 -42 4 -17 14
-28 28 -30 17 -2 24 -13 30 -42 5 -21 6 -41 4 -43 -4 -5 -274 42 -280 48 -2 2
-6 23 -10 46 l-6 41 113 70 c61 39 117 70 123 71 7 1 15 -16 19 -36z m3733
-97 c57 -14 106 -26 108 -28 2 -2 -1 -20 -6 -40 l-10 -36 -88 20 c-48 10 -103
23 -122 27 -32 6 -35 10 -31 36 6 54 5 54 149 21z m-2594 -226 c4 -77 38 -198
82 -299 14 -30 21 -58 17 -62 -9 -9 -274 -119 -286 -119 -19 0 -94 71 -165
155 -86 103 -178 239 -228 338 l-34 67 305 -2 306 -3 3 -75z m447 70 l209 0 0
-82 c0 -46 -3 -120 -7 -165 l-6 -83 -60 0 c-76 0 -243 -26 -313 -49 -62 -21
-62 -21 -99 62 -50 113 -83 296 -57 321 4 5 34 5 66 2 32 -3 153 -6 267 -6z
m1549 5 c0 -15 -75 -151 -127 -230 -72 -110 -196 -258 -253 -304 l-41 -33
-137 56 c-75 31 -143 60 -150 65 -9 6 -5 24 19 77 40 88 79 241 79 310 l0 54
278 3 c152 1 289 3 305 5 15 1 27 0 27 -3z m668 -10 c5 -4 -59 -208 -68 -218
-4 -4 -19 -5 -34 -1 -24 6 -27 10 -21 33 14 51 12 53 -77 83 l-86 29 9 31 c4
17 11 33 14 36 5 5 118 -24 168 -43 9 -4 17 -3 17 3 0 6 5 23 10 37 9 23 14
26 38 20 15 -4 28 -8 30 -10z m-3720 -102 c18 -55 27 -95 21 -99 -8 -5 -239
-84 -245 -84 -8 0 -24 73 -18 80 5 4 41 18 79 30 111 36 106 31 84 90 -10 28
-19 54 -19 59 0 12 53 31 61 22 4 -3 20 -48 37 -98z m2335 93 c22 -58 -76
-376 -116 -376 -6 0 -34 7 -62 15 -74 23 -221 45 -296 45 l-66 0 -6 113 c-4
61 -7 136 -7 165 l0 52 274 0 c227 0 275 -2 279 -14z m-2277 -309 c-18 -13
-17 -15 3 -55 16 -32 27 -42 46 -42 17 0 29 -9 40 -31 9 -17 14 -34 10 -37 -6
-6 -200 -31 -251 -32 -27 0 -33 6 -49 40 l-18 40 99 106 98 106 20 -41 c19
-39 19 -41 2 -54z m3352 49 c44 -22 52 -23 125 -13 43 5 80 7 84 4 3 -3 -3
-21 -14 -39 -16 -28 -26 -33 -61 -36 -23 -2 -42 -6 -42 -9 0 -3 9 -21 21 -40
22 -35 21 -63 -4 -97 -13 -18 -17 -13 -56 58 -37 66 -50 80 -92 101 l-49 25
17 35 c9 19 18 35 20 35 2 0 25 -11 51 -24z m-1714 -243 c-3 -60 -9 -171 -12
-248 l-7 -140 -65 0 -65 0 -117 209 c-65 115 -118 212 -118 216 0 21 217 67
323 69 l67 1 -6 -107z m292 92 c97 -17 194 -45 194 -55 0 -4 -53 -101 -118
-216 l-117 -209 -66 -3 -66 -3 -7 168 c-3 92 -9 205 -13 251 l-6 82 55 0 c31
0 95 -7 144 -15z m-672 -260 c58 -97 106 -180 106 -185 0 -14 -18 -12 -81 6
-99 30 -281 134 -373 216 l-39 34 124 51 c68 28 131 52 140 52 11 1 52 -57
123 -174z m1120 123 l129 -52 -39 -35 c-122 -106 -362 -231 -447 -231 -18 0
-18 1 1 33 104 176 207 337 216 337 6 0 69 -23 140 -52z m-1969 -338 c6 -28
10 -30 53 -30 l47 -1 -34 -28 c-32 -26 -33 -30 -23 -61 7 -18 12 -35 12 -37 0
-3 -16 6 -37 18 -35 22 -37 22 -66 5 -36 -20 -44 -15 -28 21 11 24 10 29 -11
45 -13 10 -26 18 -30 18 -5 0 -8 5 -8 10 0 6 18 10 39 10 36 0 41 3 52 34 14
40 25 39 34 -4z m2547 -43 l43 5 -35 -30 c-31 -28 -33 -32 -22 -56 19 -42 15
-47 -23 -25 l-34 21 -38 -29 c-29 -22 -35 -24 -30 -10 21 55 19 65 -12 83 -42
25 -39 34 9 34 22 0 40 4 40 9 0 5 5 22 11 38 l11 28 19 -37 c18 -35 20 -36
61 -31z m-1692 -427 l0 -160 -35 0 -35 0 0 110 0 111 -30 -16 c-40 -21 -50
-19 -50 10 0 17 9 29 28 39 15 8 38 26 51 40 14 14 35 26 48 26 l23 0 0 -160z
m284 120 c28 -28 31 -37 34 -109 6 -126 -33 -181 -128 -181 -43 0 -90 33 -90
65 0 20 53 20 70 0 27 -32 80 0 80 48 0 14 -4 16 -19 7 -52 -27 -125 13 -136
74 -21 111 109 177 189 96z m245 15 c72 -37 82 -215 16 -281 -48 -48 -133 -44
-165 8 -10 18 -17 35 -14 40 7 11 64 10 64 -2 0 -5 10 -14 21 -21 18 -9 25 -8
39 7 10 11 21 28 24 40 6 20 4 21 -43 16 -46 -4 -53 -2 -81 26 -33 34 -40 87
-16 131 27 48 99 65 155 36z m298 -17 c33 -31 30 -58 -6 -58 -16 0 -31 6 -35
15 -7 18 -50 20 -64 2 -6 -6 -14 -25 -18 -41 -6 -26 -5 -27 14 -17 64 34 142
-17 142 -94 0 -34 -25 -82 -49 -95 -30 -15 -104 -12 -130 6 -69 49 -67 241 3
287 48 32 106 30 143 -5z"/>
<path d="M2766 4468 c-33 -46 -12 -118 34 -118 40 0 69 97 38 128 -19 19 -55
14 -72 -10z"/>
<path d="M2090 4428 c0 -31 3 -38 20 -38 25 0 26 21 0 51 l-19 24 -1 -37z"/>
<path d="M1487 4279 c-13 -8 -15 -14 -7 -30 14 -24 25 -24 50 1 33 33 1 55
-43 29z"/>
<path d="M3375 4250 c-31 -32 -31 -36 -1 -42 16 -2 21 5 27 32 4 19 6 36 5 37
-1 2 -15 -11 -31 -27z"/>
<path d="M550 3180 c-42 -42 -11 -89 64 -97 38 -5 46 -2 56 17 19 36 5 66 -40
84 -51 20 -56 20 -80 -4z"/>
<path d="M468 2860 c-26 -16 -23 -65 4 -84 23 -17 85 -21 104 -8 22 14 25 49
7 71 -21 26 -88 38 -115 21z"/>
<path d="M4440 2516 c0 -26 24 -51 40 -41 5 3 10 19 10 36 0 24 -4 29 -25 29
-20 0 -25 -5 -25 -24z"/>
<path d="M3143 2446 c-25 -22 -28 -30 -28 -91 0 -61 2 -69 29 -92 23 -19 36
-24 60 -19 49 10 66 38 66 113 0 55 -4 67 -25 88 -31 32 -66 32 -102 1z"/>
<path d="M3622 2463 c-36 -14 -55 -123 -31 -177 27 -59 117 -55 138 6 14 40
14 101 0 131 -17 37 -68 56 -107 40z"/>
<path d="M1261 2386 c-6 -24 -13 -51 -17 -60 -5 -13 1 -16 36 -16 35 0 41 3
36 18 -2 9 -10 36 -17 60 -7 23 -15 42 -19 42 -4 0 -13 -20 -19 -44z"/>
<path d="M2074 2380 l-20 -65 34 -3 c19 -2 36 -1 39 2 3 2 -4 33 -14 68 l-20
63 -19 -65z"/>
<path d="M525 2037 l-40 -22 39 -3 c44 -4 49 -1 44 26 -3 20 -3 20 -43 -1z"/>
<path d="M695 1480 l-28 -29 39 6 c48 7 47 7 39 32 -9 28 -16 27 -50 -9z"/>
<path d="M2232 618 c-17 -17 -15 -73 2 -88 42 -34 92 22 68 75 -13 27 -49 34
-70 13z"/>
<path d="M2502 618 c-7 -7 -12 -29 -12 -50 0 -44 27 -66 60 -48 28 15 28 85 1
100 -25 13 -34 13 -49 -2z"/>
<path d="M2770 484 c-19 -50 29 -104 65 -74 18 15 20 71 3 88 -22 22 -58 14
-68 -14z"/>
</g>
</svg>
